# xmcd
#
# Track frame offsets: 
#        150
#        18159
#        36788
#        55252
#        75864
#        92534
#        111571
#        134211
#        153615
#        176160
#        195569
#        213733
#
# Disc length: 3118 seconds
#
# Revision: 2
# Processed by: cddbd v1.5.2PL0 Copyright (c) Steve Scherf et al.
# Submitted via: ExactAudioCopy v1.0b3
#
DISCID=a50c2c0c
DTITLE=Jeff Healey - Heal My Soul
DYEAR=2016
DGENRE=Blues
TTITLE0=Daze of the Night
TTITLE1=Moodswing
TTITLE2=Baby Blue
TTITLE3=I Misunderstood
TTITLE4=Please
TTITLE5=Love in Her Eyes
TTITLE6=Temptation
TTITLE7=Kiss the Ground You Walk On
TTITLE8=All the Saints
TTITLE9=Put the Shoe on the Other Foot
TTITLE10=Under a Stone
TTITLE11=It's the Last Time
EXTD=YEAR: 2016
EXTT0=
EXTT1=
EXTT2=
EXTT3=
EXTT4=
EXTT5=
EXTT6=
EXTT7=
EXTT8=
EXTT9=
EXTT10=
EXTT11=
PLAYORDER=
